<svg id="Layer_1" data-name="Layer 1" xmlns="http://www.w3.org/2000/svg" viewBox="0 0 3000 3000"><defs><style>.cls-1{fill:#1a1a1a;}</style></defs><polygon class="cls-1" points="571.28 1121.69 425.54 1258.13 912.38 1558.92 912.38 2486.08 1430.23 2188.4 1424.03 1239.53 1014.71 1010.06 1014.71 870.52 1482.94 1134.1 1972.88 855.02 1969.78 1025.57 1557.37 1264.33 1560.47 2185.3 2075.21 2489.18 2078.32 1568.22 2574.46 1251.93 2416.31 1109.29 1876.76 1453.49 1876.76 2151.18 1752.72 2076.76 1752.72 1360.46 2162.04 1140.3 2162.04 510.82 1479.84 886.02 825.56 510.82 825.56 1115.49 1225.57 1344.96 1225.57 2061.26 1092.23 2123.28 1092.23 1447.29 571.28 1121.69"/></svg>