<?xml version="1.0" encoding="UTF-8"?>
<svg id="Layer_1" data-name="Layer 1" xmlns="http://www.w3.org/2000/svg" viewBox="0 0 1920 1920">
  <polygon points="1050.46 561.53 657.74 958.46 1050.46 1353.34 866.89 1353.34 475.1 958.46 869.63 561.53 1050.46 561.53" style="fill: #0294c7; stroke-width: 0px;"/>
  <polygon points="450.44 1263.48 658.65 1263.48 658.65 1393.19 322.59 1393.19 322.59 526.81 658.65 526.81 658.65 656.52 450.44 656.52 450.44 1263.48" style="fill: #010560; stroke-width: 0px;"/>
  <polygon points="1470.56 1263.48 1262.35 1263.48 1262.35 1393.19 1598.41 1393.19 1598.41 526.81 1262.35 526.81 1262.35 656.52 1470.56 656.52 1470.56 1263.48" style="fill: #40cce5; stroke-width: 0px;"/>
  <polygon points="869.63 561.53 1262.35 958.46 869.63 1353.34 1053.2 1353.34 1444.99 958.46 1050.46 561.53 869.63 561.53" style="fill: #01b4dd; stroke-width: 0px;"/>
</svg>