<svg width="96" height="96" viewBox="0 0 96 96" fill="none" xmlns="http://www.w3.org/2000/svg">
<path d="M78.8224 55.9317V29.4264C78.8224 22.0115 72.8109 16 65.3975 16H30.7809C23.3668 16 17.3553 22.0115 17.3553 29.4256V55.9325C16.71 75.8404 30.4526 74.9528 32.4952 74.9528L48.0633 75.9829V75.9867H48.1151V75.9829L63.6833 74.9528C65.7267 74.9528 79.4693 75.8427 78.8239 55.9325L78.8224 55.9317Z" fill="#0075FF"/>
<path d="M57.1024 47.153C72.2073 36.7628 73.357 45.3549 67.2892 58.3965L67.2915 58.398C65.4065 61.739 69.536 63.099 73.0271 63.566C73.0286 63.5683 70.9189 70.0407 66.3779 73.7299L58.5836 75.5737L56.0685 76.3608C56.0479 76.3623 52.5432 77.4168 52.0152 77.5646L44.1751 77.5631C43.6463 77.4145 40.1416 76.3592 40.1217 76.3592L37.6074 75.5714L29.8123 73.7276C25.2714 70.0384 23.1609 63.566 23.1631 63.5637C26.6519 63.0974 30.7838 61.7367 28.898 58.3965C22.831 45.3533 23.9799 36.7628 39.0855 47.153C41.913 45.9766 44.55 45.7381 48.0471 45.6642C48.0549 45.6656 48.0628 45.6662 48.0707 45.6657H48.1408C51.638 45.7404 54.2727 45.9766 57.1024 47.153Z" fill="white"/>
<path d="M29.2794 45.502C29.0447 45.5515 28.8085 45.6201 28.6058 45.7503C27.9529 46.1732 28.1053 47.1408 28.1593 47.7999C28.2637 49.0608 28.5403 50.3249 28.8702 51.5553C29.0961 52.4162 29.3883 53.2584 29.7441 54.0742C30.1415 53.4593 30.5857 52.876 31.0729 52.3294C31.4452 51.909 31.8383 51.5075 32.2508 51.1264C34.4131 49.1264 36.5655 48.1321 36.5655 48.1321C34.4893 46.6395 31.9559 44.9244 29.2816 45.4997L29.2794 45.502ZM66.8971 45.502C67.1318 45.5515 67.368 45.6201 67.5707 45.7503C68.2236 46.1732 68.0712 47.1408 68.0179 47.7999C67.9135 49.0608 67.6369 50.3249 67.3063 51.5553C67.0803 52.4162 66.7882 53.2584 66.4324 54.0742C66.0352 53.4593 65.5913 52.876 65.1044 52.3294C64.7318 51.909 64.3384 51.5074 63.9257 51.1264C61.7634 49.1264 59.6117 48.1321 59.6117 48.1321C61.6872 46.6395 64.2205 44.9244 66.8956 45.4997L66.8971 45.502ZM52.001 77.5494L51.9706 77.4808C51.5584 76.5528 50.7164 75.8862 49.7763 75.541C48.6661 75.1397 47.4493 75.1467 46.3438 75.5608C45.4219 75.9113 44.6143 76.5711 44.2036 77.4808L44.1739 77.5494C44.1715 77.5538 44.1695 77.5584 44.1678 77.5631C44.9953 78.9155 46.4383 79.9814 48.0635 79.9997H48.1115C49.7389 79.9837 51.1789 78.9193 52.0086 77.5654C52.0063 77.5607 52.0042 77.5559 52.0026 77.5509L52.001 77.5494ZM46.0871 64.043C45.7157 63.6396 45.2918 63.2877 44.8269 62.9969C44.3261 62.6837 43.7911 62.4291 43.2322 62.2381C42.6376 62.0346 42.0227 61.8962 41.3983 61.8251C40.7415 61.7505 40.0764 61.7489 39.4189 61.8213C38.7278 61.8952 38.0444 62.0514 37.3891 62.2838C36.6897 62.5322 36.0223 62.8666 35.4028 63.2758C34.7257 63.7266 34.106 64.2583 33.5575 64.859C32.9342 65.5364 32.3994 66.2914 31.9445 67.0914C31.4196 68.0274 30.9893 69.0134 30.6599 70.0347C30.2713 71.2396 29.9843 72.4749 29.802 73.7277C29.7746 73.9143 29.7464 74.0987 29.7205 74.2884V74.2808C29.7022 74.3989 29.6542 74.6694 29.6382 74.8401C33.1407 75.2469 36.6417 75.7254 40.1122 76.3585C40.052 76.3486 40.5046 74.3913 40.5617 74.1924C40.7072 73.6759 40.8855 73.1646 41.1339 72.6877C41.4829 72.0164 41.9735 71.4557 42.6151 71.0526C43.2124 70.6778 43.8753 70.4233 44.5008 70.1002C45.2177 69.7299 45.9073 69.2835 46.484 68.7158C47.0517 68.1612 47.236 67.5402 47.2277 66.7524C47.2199 66.2573 47.1151 65.7686 46.9191 65.3139C46.7142 64.8468 46.4333 64.4168 46.0878 64.0415L46.0871 64.043ZM66.5367 74.8401C66.5185 74.6671 66.4727 74.3989 66.4545 74.2808V74.2884C66.4308 74.098 66.4011 73.9143 66.3722 73.7277C66.1902 72.4749 65.9034 71.2396 65.515 70.0347C65.185 69.0134 64.7547 68.0272 64.2304 67.0907C63.7756 66.2914 63.24 65.5364 62.6175 64.8583C62.0682 64.2583 61.4483 63.7269 60.7714 63.2758C60.1525 62.8654 59.4857 62.5322 58.7858 62.2838C58.1306 62.0514 57.4472 61.8952 56.7561 61.8213C56.0979 61.7494 55.4338 61.7507 54.7759 61.8251C54.1516 61.8952 53.5368 62.0337 52.9427 62.2381C52.3858 62.4301 51.8464 62.6823 51.3481 62.9969C50.8829 63.2877 50.4587 63.6395 50.0871 64.043C49.741 64.4178 49.4601 64.8479 49.2559 65.3154C49.0588 65.77 48.9539 66.2592 48.9473 66.7547C48.9397 67.5417 49.1233 68.1612 49.6902 68.7181C50.2677 69.285 50.9572 69.7315 51.6742 70.1025C52.2989 70.4256 52.9626 70.6778 53.5599 71.0549C54.2014 71.4572 54.6921 72.0187 55.041 72.69C55.2871 73.1669 55.4677 73.6774 55.614 74.1947C55.6696 74.3928 56.123 76.3509 56.0628 76.3608C59.5333 75.7277 63.0342 75.2484 66.5367 74.8416V74.8401Z" fill="#002F66"/>
<path d="M41.379 68.6313C41.5837 68.6313 41.7864 68.591 41.9756 68.5126C42.1647 68.4343 42.3365 68.3195 42.4813 68.1747C42.626 68.03 42.7409 67.8581 42.8192 67.669C42.8975 67.4798 42.9379 67.2771 42.9379 67.0724C42.9379 66.8677 42.8975 66.665 42.8192 66.4759C42.7409 66.2867 42.626 66.1149 42.4813 65.9701C42.3365 65.8254 42.1647 65.7106 41.9756 65.6322C41.7864 65.5539 41.5837 65.5135 41.379 65.5135C40.9656 65.5135 40.5691 65.6778 40.2767 65.9701C39.9844 66.2625 39.8201 66.659 39.8201 67.0724C39.8201 67.4859 39.9844 67.8824 40.2767 68.1747C40.5691 68.4671 40.9656 68.6313 41.379 68.6313ZM54.7985 68.6313C55.0032 68.6313 55.2059 68.591 55.3951 68.5126C55.5842 68.4343 55.756 68.3195 55.9008 68.1747C56.0456 68.03 56.1604 67.8581 56.2387 67.669C56.3171 67.4798 56.3574 67.2771 56.3574 67.0724C56.3574 66.8677 56.3171 66.665 56.2387 66.4759C56.1604 66.2867 56.0456 66.1149 55.9008 65.9701C55.756 65.8254 55.5842 65.7106 55.3951 65.6322C55.2059 65.5539 55.0032 65.5135 54.7985 65.5135C54.3851 65.5135 53.9886 65.6778 53.6962 65.9701C53.4039 66.2625 53.2396 66.659 53.2396 67.0724C53.2396 67.4859 53.4039 67.8824 53.6962 68.1747C53.9886 68.4671 54.3851 68.6313 54.7985 68.6313Z" fill="white"/>
</svg>
